<?xml version="1.0" encoding="UTF-8"?>

<svg xmlns="http://www.w3.org/2000/svg" viewBox="40 43 100 99">
  <polygon fill="#000000" points="80.3 119.1 62.4 119.1 62.4 47.5 44.5 47.5 44.5 137 62.4 137 98.2 137 98.2 119.1 98.2 101.2 80.3 101.2 80.3 119.1"></polygon>
  <path fill="#EFD500" d="M99.8,101.2l1.6,17.8c7.5-.7,14.4-3.6,19.9-8.2l-11.5-13.7c-2.7,2.3-6.2,3.8-9.9,4.1Z"></path>
  <path fill="#EFD500" d="M112,94.8l13.7,11.5c4.6-5.5,7.6-12.3,8.2-19.9l-17.8-1.6c-.3,3.8-1.8,7.2-4.1,9.9Z"></path>
  <path fill="#EFD500" d="M116.1,81.8l17.8-1.6c-.7-7.5-3.6-14.4-8.2-19.9l-13.7,11.5c2.3,2.7,3.8,6.2,4.1,9.9Z"></path>
  <path fill="#EFD500" d="M121.3,55.9c-5.5-4.6-12.3-7.6-19.9-8.2l-1.6,17.8c3.8.3,7.2,1.8,9.9,4.1l11.5-13.7Z"></path>
  <path fill="#EFD500" d="M96.7,65.5l-1.6-17.8c-7.5.7-14.4,3.6-19.9,8.2l11.5,13.7c2.7-2.3,6.2-3.8,9.9-4.1Z"></path>
</svg>