<svg viewBox="0 0 32 32" xmlns="http://www.w3.org/2000/svg" xmlns:xlink="http://www.w3.org/1999/xlink" id="Up" overflow="hidden"><defs></defs><path d="M8 13 4 13C3.4 13 3 12.6 3 12L3 8 1 8C0.2 8-0.3 7 0.2 6.4L5.2 0.4C5.6-0.1 6.4-0.1 6.7 0.4L11.7 6.4C12.2 7.1 11.7 8 10.9 8L8.9 8 8.9 12C8.9 12.6 8.5 13 7.9 13ZM5 11 7 11 7 7C7 6.4 7.4 6 8 6L8.9 6 6 2.6 3.1 6 4 6C4.6 6 5 6.4 5 7L5 11Z" fill="#EFD500"></path><path d="M31 28C31.6 28 32 27.6 32 27L32 14.2C32 11.5 28.6 10.2 26.8 12.2L21.7 17.8C21.3 18.2 20.6 18.2 20.3 17.8L15.5 13C14.2 11.7 12 11.9 10.9 13.4L6.3 19.9C6 20.3 5.4 20.5 5 20.2L4.6 20C2.6 18.8 0.1 20.2 0.1 22.6L0.1 29.1C0.1 30.8 1.4 32.1 3.1 32.1L31.1 32.1C31.7 32.1 32.1 31.7 32.1 31.1 32.1 30.5 31.7 30.1 31.1 30.1L22.1 30.1 22.1 24.1C22.1 23.5 21.7 23.1 21.1 23.1 20.5 23.1 20.1 23.5 20.1 24.1L20.1 30.1 14.1 30.1 14.1 19.1C14.1 18.5 13.7 18.1 13.1 18.1 12.5 18.1 12.1 18.5 12.1 19.1L12.1 30.1 7.1 30.1 7.1 26.1C7.1 25.5 6.7 25.1 6.1 25.1 5.5 25.1 5.1 25.5 5.1 26.1L5.1 30.1 3.1 30.1C2.5 30.1 2.1 29.7 2.1 29.1L2.1 22.6C2.1 21.8 3 21.3 3.6 21.7L4 21.9C5.3 22.7 7.1 22.3 8 21L12.6 14.5C13 14 13.7 13.9 14.1 14.4L18.9 19.2C20.2 20.5 22.1 20.3 23.2 19.1L28.3 13.5C28.9 12.8 30 13.3 30 14.2L30 27C30 27.6 30.4 28 31 28Z" fill="#EFD500"></path></svg>