<svg viewBox="0 0 32 32" xmlns="http://www.w3.org/2000/svg" xmlns:xlink="http://www.w3.org/1999/xlink" id="Presentation" overflow="hidden"><defs></defs><path d="M29 8 28.2 8 18.2 3C17.7 2.8 17.1 3 16.9 3.5 16.7 4 16.9 4.6 17.4 4.8L23.8 8 8.4 8 14.8 4.8C15.3 4.6 15.5 4 15.3 3.5 15.1 3 14.5 2.8 14 3L3.8 8 3 8C1.3 8 0 9.3 0 11L0 29C0 30.7 1.3 32 3 32L6 32C6.6 32 7 31.6 7 31 7 30.4 6.6 30 6 30L3 30C2.4 30 2 29.6 2 29L2 11C2 10.4 2.4 10 3 10L29 10C29.6 10 30 10.4 30 11L30 29C30 29.6 29.6 30 29 30L10 30C9.4 30 9 30.4 9 31 9 31.6 9.4 32 10 32L29 32C30.7 32 32 30.7 32 29L32 11C32 9.3 30.7 8 29 8Z" fill="#EFD500"></path><path d="M16 6C14.3 6 13 4.7 13 3 13 1.3 14.3 0 16 0 17.7 0 19 1.3 19 3 19 4.7 17.7 6 16 6ZM16 2C15.4 2 15 2.4 15 3 15 3.6 15.4 4 16 4 16.6 4 17 3.6 17 3 17 2.4 16.6 2 16 2Z" fill="#EFD500"></path><path d="M9 28 7 28C5.9 28 5 27.1 5 26L5 20C5 18.9 5.9 18 7 18L9 18C10.1 18 11 18.9 11 20L11 26C11 27.1 10.1 28 9 28ZM7 20 7 26 9 26 9 20 7 20Z" fill="#EFD500"></path><path d="M17 28 15 28C13.9 28 13 27.1 13 26L13 18C13 16.9 13.9 16 15 16L17 16C18.1 16 19 16.9 19 18L19 26C19 27.1 18.1 28 17 28ZM15 18 15 26 17 26 17 18 15 18Z" fill="#EFD500"></path><path d="M25 28 23 28C21.9 28 21 27.1 21 26L21 15C21 13.9 21.9 13 23 13L25 13C26.1 13 27 13.9 27 15L27 26C27 27.1 26.1 28 25 28ZM23 15 23 26 25 26 25 15 23 15Z" fill="#EFD500"></path></svg>