<svg viewBox="0 0 32 32" xmlns="http://www.w3.org/2000/svg" xmlns:xlink="http://www.w3.org/1999/xlink" id="World" overflow="hidden"><defs></defs><path d="M16 26C10.5 26 6 21.5 6 16 6 10.5 10.5 6 16 6 21.5 6 26 10.5 26 16 26 21.5 21.5 26 16 26ZM16 8C11.6 8 8 11.6 8 16 8 20.4 11.6 24 16 24 20.4 24 24 20.4 24 16 24 11.6 20.4 8 16 8Z" fill="#EFD500"></path><path d="M24.5 18 19.9 18C20 16.6 20 15.4 19.9 14L24.5 14C25.1 14 25.5 13.6 25.5 13 25.5 12.4 25.1 12 24.5 12L19.7 12C19.2 9.1 18.2 6 16 6 13.8 6 12.8 9.1 12.3 12L7.5 12C6.9 12 6.5 12.4 6.5 13 6.5 13.6 6.9 14 7.5 14L12.1 14C12 15.4 12 16.6 12.1 18L7.5 18C6.9 18 6.5 18.4 6.5 19 6.5 19.6 6.9 20 7.5 20L12.3 20C12.8 22.9 13.8 26 16 26 18.2 26 19.2 22.9 19.7 20L24.5 20C25.1 20 25.5 19.6 25.5 19 25.5 18.4 25.1 18 24.5 18ZM16 8C16.5 8 17.2 9.6 17.6 12L14.3 12C14.7 9.6 15.5 8 15.9 8ZM14.1 14 17.9 14C18 15.4 18 16.6 17.9 18L14.1 18C14 16.6 14 15.4 14.1 14ZM16 24C15.5 24 14.8 22.4 14.4 20L17.7 20C17.3 22.4 16.5 24 16.1 24Z" fill="#EFD500"></path><path d="M16 0C7.2 0 0 7.2 0 16 0 24.8 2.3 25.7 6.4 28.8 6.8 29.1 7.5 29 7.8 28.6 8.1 28.2 8 27.5 7.6 27.2 4 24.5 2 20.4 2 16 2 8.6 7.7 2.6 15 2.1L15 6.1C10 6.6 6 10.9 6 16 6 21.1 10 25.4 15 25.9L15 29.9C13.7 29.9 12.5 29.6 11.3 29.1 10.8 28.9 10.2 29.1 10 29.7 9.8 30.2 10 30.8 10.6 31 21 34.7 31.9 26.9 31.9 15.9 31.9 4.9 24.8 0 16 0ZM26.6 25.2 23.8 22.4C28.9 16.2 24.9 6.9 17.1 6.1L17.1 2.1C28.6 2.9 34.2 16.5 26.7 25.2ZM22.3 23.7 25.1 26.5C22.9 28.4 20.1 29.7 16.9 29.9L16.9 25.9C18.9 25.7 20.7 24.9 22.2 23.7ZM8 16C8 11.6 11.6 8 16 8 23.1 8 26.7 16.6 21.7 21.6 16.7 26.6 8 23.1 8 16Z" fill="#EFD500"></path></svg>