<svg viewBox="0 0 32 32" xmlns="http://www.w3.org/2000/svg" xmlns:xlink="http://www.w3.org/1999/xlink" id="Bulb" overflow="hidden"><defs></defs><path d="M26.9 9.9C26.1 1 15.3-3.2 8.7 2.8 5.8 5.4 4.5 9.4 5.3 13.2 5.4 13.7 5.9 14.1 6.5 14 7 13.9 7.4 13.4 7.3 12.8 6.7 9.7 7.7 6.5 10.1 4.3 15.7-0.7 24.4 3 25.1 10.1 25.3 12.6 24.6 15 23 16.8 21.1 19 19.9 21.4 19.3 24L13 24C12.1 19.7 9.8 17.5 9 16.4 8.7 16 8 15.9 7.6 16.2 7.2 16.5 7.1 17.2 7.4 17.6 8.3 18.7 10.5 20.6 11.2 25.1L11.2 27C11.2 29.8 13.4 32 16.2 32 19 32 21.2 29.8 21.2 27L21.2 25.1C21.6 22.5 22.8 20.2 24.6 18.2 26.6 15.9 27.5 13 27.2 10ZM19 27C19 28.7 17.7 30 16 30 14.3 30 13 28.7 13 27L13 26 19 26 19 27Z" fill="#EFD500"></path><path d="M16 17C12.7 17 10 14.3 10 11 10 7.7 12.7 5 16 5 19.3 5 22 7.7 22 11 22 14.3 19.3 17 16 17ZM16 7C13.8 7 12 8.8 12 11 12 13.2 13.8 15 16 15 18.2 15 20 13.2 20 11 20 8.8 18.2 7 16 7Z" fill="#EFD500"></path><path d="M19.5 15.5C19.2 15.5 19 15.5 18.8 15.2L15.3 11.7C15.1 11.5 15 11.3 15 11L15 6C15 5.4 15.4 5 16 5 16.6 5 17 5.4 17 6L17 10.6 20.2 13.8C20.8 14.4 20.4 15.5 19.5 15.5Z" fill="#EFD500"></path></svg>