<svg viewBox="0 0 32 32" xmlns="http://www.w3.org/2000/svg" xmlns:xlink="http://www.w3.org/1999/xlink" id="Laptop_Analysis" overflow="hidden"><defs></defs><g><path d="M31 26 3 26 3 9C3 8.4 3.4 8 4 8L10 8C10.6 8 11 7.6 11 7 11 6.4 10.6 6 10 6L4 6C2.3 6 1 7.3 1 9L1 26C0.4 26 0 26.4 0 27L0 29C0 30.7 1.3 32 3 32L29 32C30.7 32 32 30.7 32 29L32 27C32 26.4 31.6 26 31 26ZM30 29C30 29.6 29.6 30 29 30L3 30C2.4 30 2 29.6 2 29L2 28 30 28 30 29Z" fill="#EFD500"></path><path d="M22 8 28 8C28.6 8 29 8.4 29 9L29 23C29 23.6 29.4 24 30 24 30.6 24 31 23.6 31 23L31 9C31 7.3 29.7 6 28 6L22 6C21.4 6 21 6.4 21 7 21 7.6 21.4 8 22 8Z" fill="#EFD500"></path></g><path d="M26.7 16.3 21.6 11.2C25 6.6 21.7 1.77636e-15 16 1.77636e-15 10.3 1.77636e-15 9 3.1 9 7 9 12.8 15.6 16 20.2 12.6L25.3 17.7C25.5 17.9 25.8 18 26 18 26.9 18 27.3 16.9 26.7 16.3ZM11 7C11 4.2 13.2 2 16 2 20.5 2 22.7 7.4 19.5 10.5 16.3 13.6 11 11.4 11 7Z" fill="#EFD500"></path><path d="M14 24C13.4 24 13 23.6 13 23L13 20C13 19.4 13.4 19 14 19 14.6 19 15 19.4 15 20L15 23C15 23.6 14.6 24 14 24Z" fill="#EFD500"></path><path d="M18 24C17.4 24 17 23.6 17 23L17 17C17 16.4 17.4 16 18 16 18.6 16 19 16.4 19 17L19 23C19 23.6 18.6 24 18 24Z" fill="#EFD500"></path><path d="M10 24C9.4 24 9 23.6 9 23L9 19C9 18.4 9.4 18 10 18 10.6 18 11 18.4 11 19L11 23C11 23.6 10.6 24 10 24Z" fill="#EFD500"></path><path d="M6 24C5.4 24 5 23.6 5 23L5 22C5 21.4 5.4 21 6 21 6.6 21 7 21.4 7 22L7 23C7 23.6 6.6 24 6 24Z" fill="#EFD500"></path></svg>