<svg viewBox="0 0 32 32" xmlns="http://www.w3.org/2000/svg" xmlns:xlink="http://www.w3.org/1999/xlink" id="Rise" overflow="hidden"><defs></defs><path d="M1 20C0.1 20-0.3 18.9 0.3 18.3L5.3 13.3C5.7 12.9 6.2 12.9 6.6 13.3L9.9 15.8 17.3 8.4C17.7 8 18.3 8 18.7 8.4L22 11.7 28.3 6.3C28.9 5.7 30 6.3 30 7.1L30 13.1C30 13.7 29.6 14.1 29 14.1 28.4 14.1 28 13.7 28 13.1L28 9.3 22.7 13.9C22.3 14.2 21.7 14.2 21.3 13.9L18 10.6 10.7 17.9C10.3 18.3 9.8 18.3 9.4 17.9L6.1 15.4 1.7 19.8C1.5 20 1.2 20.1 1 20.1Z" fill="#EFD500"></path><g><path d="M31 30 30 30C30 30 30 13 30 13 30 12.1 28.9 11.7 28.3 12.3L22 18.6 18.7 15.3C18.3 14.9 17.7 14.9 17.3 15.3L10 22.6 6.7 19.3C6.3 18.9 5.7 18.9 5.3 19.3L2 22.6 2 11C2 10.4 1.6 10 1 10 0.4 10 8.88178e-16 10.4 8.88178e-16 11L8.88178e-16 29C8.88178e-16 30.7 1.3 32 3 32 13 32-15.8 32 31 32 31.6 32 32 31.6 32 31 32 30.4 31.6 30 31 30ZM2 29 2 25.4 6 21.4 9.3 24.7C9.7 25.1 10.3 25.1 10.7 24.7L18 17.4 21.3 20.7C21.7 21.1 22.3 21.1 22.7 20.7L28 15.4 28 30 3 30C2.4 30 2 29.6 2 29Z" fill="#EFD500"></path><path d="M1 8C1.6 8 2 7.6 2 7L2 1C2 0.4 1.6 0 1 0 0.4 0 0 0.4 0 1L0 7C0 7.6 0.4 8 1 8Z" fill="#EFD500"></path></g></svg>