<svg viewBox="0 0 32 32" xmlns="http://www.w3.org/2000/svg" xmlns:xlink="http://www.w3.org/1999/xlink" id="Personal_Analysis" overflow="hidden"><defs></defs><path d="M16 32 6 32C3.2 32 1 29.8 1 27L1 11C1 10.4 1.4 10 2 10 2.6 10 3 10.4 3 11L3 27C3 28.7 4.3 30 6 30L16 30C17.7 30 19 28.7 19 27 19 25.3 19.4 26 20 26 20.6 26 21 26.4 21 27 21 29.8 18.8 32 16 32Z" fill="#EFD500"></path><path d="M16 0 6 0C3.2 0 1 2.2 1 5L1 7C1 7.6 1.4 8 2 8 2.6 8 3 7.6 3 7L3 5C3 3.3 4.3 2 6 2L6 3.2C6 4.7 7.3 6 8.8 6L13.2 6C14.7 6 16 4.7 16 3.2L16 2C17.7 2 19 3.3 19 5L19 15C19 15.6 19.4 16 20 16 20.6 16 21 15.6 21 15L21 5C21 2.2 18.8 0 16 0ZM14 3.2C14 3.6 13.6 4 13.2 4L8.8 4C8.4 4 8 3.6 8 3.2L8 2 14 2 14 3.2Z" fill="#EFD500"></path><path d="M30.7 30.3 25.6 25.2C29 20.6 25.8 14 20 14 14.2 14 13 17.1 13 21 13 26.7 19.6 30 24.2 26.6L29.3 31.7C29.5 31.9 29.8 32 30 32 30.9 32 31.3 30.9 30.7 30.3ZM15 21C15 18.2 17.2 16 20 16 24.5 16 26.7 21.4 23.5 24.5 20.3 27.6 15 25.4 15 21Z" fill="#EFD500"></path></svg>