<svg viewBox="0 0 32 32" xmlns="http://www.w3.org/2000/svg" xmlns:xlink="http://www.w3.org/1999/xlink" id="Share" overflow="hidden"><defs></defs><g><path d="M7.8 10.2 12.1 14.5C12.3 14.7 12.6 14.8 12.8 14.8 13.7 14.8 14.1 13.7 13.5 13.1L9.2 8.8C11.4 5.5 9 1 5 1 1 1-0.7 4.1 0.2 7.2 0.3 7.7 0.9 8.1 1.4 7.9 1.9 7.8 2.3 7.2 2.1 6.7 1.6 4.8 3.1 2.9 5 2.9 6.9 2.9 8 4.2 8 5.9 8 7.6 6.2 9.3 4.2 8.8 3.7 8.7 3.1 9 3 9.5 2.9 10 3.2 10.6 3.7 10.7 5 11 6.5 10.8 7.7 10Z" fill="#EFD500"></path><path d="M25.7 5.7 23.8 4.1C24.6 2.1 23.1 0 21 0 18.9 0 18 1.3 18 3 18 4.7 20.4 6.8 22.5 5.6L24.4 7.3C23.8 8.5 23.8 9.7 24.4 10.9L21.7 13.3C21.3 13.7 21.3 14.3 21.7 14.7 22.1 15.1 22.7 15.1 23.1 14.7L25.8 12.3C28.4 14.1 32 12.2 32 9 32 5.8 28.4 3.9 25.7 5.7ZM20 3C20 2.4 20.4 2 21 2 21.6 2 22 2.4 22 3 22 3.6 21.6 4 21 4 20.4 4 20 3.6 20 3ZM28 11C26.9 11 26 10.1 26 9 26 7.9 26.9 7 28 7 29.1 7 30 7.9 30 9 30 10.1 29.1 11 28 11Z" fill="#EFD500"></path><path d="M12.2 21.8 9.8 24.5C7.1 23.1 4 25.1 4 28 4 30.9 5.8 32 8 32 11.2 32 13.1 28.4 11.3 25.8L13.7 23.1C14.1 22.7 14 22.1 13.7 21.7 13.3 21.3 12.7 21.4 12.3 21.7ZM8 30C6.9 30 6 29.1 6 28 6 26.9 6.9 26 8 26 9.1 26 10 26.9 10 28 10 29.1 9.1 30 8 30Z" fill="#EFD500"></path></g><path d="M17 25C13.1 25 10 21.9 10 18 10 14.1 13.1 11 17 11 20.9 11 24 14.1 24 18 24 21.9 20.9 25 17 25ZM17 13C14.2 13 12 15.2 12 18 12 20.8 14.2 23 17 23 19.8 23 22 20.8 22 18 22 15.2 19.8 13 17 13Z" fill="#EFD500"></path></svg>