<svg viewBox="0 0 32 32" xmlns="http://www.w3.org/2000/svg" xmlns:xlink="http://www.w3.org/1999/xlink" id="Analysis" overflow="hidden"><defs></defs><path d="M30.9 25.5 25.4 20C24.6 19.2 23.3 19.2 22.6 20L22 20.6 21.2 19.8C27.7 12 22.2 0 12 0 1.8 0 0 5.4 0 12 0 18.6 3 21.4 7.6 23.2 8.1 23.4 8.7 23.2 8.9 22.6 9.1 22.1 8.9 21.5 8.3 21.3 4.4 19.8 1.9 16.1 1.9 12 1.9 7.9 6.5 2 12 2 17.5 2 22 6.5 22 12 22 17.5 17.5 22 12 22 6.5 22 11 22.4 11 23 11 23.6 11.4 24 12 24 14.9 24 17.6 22.9 19.7 21.2L20.5 22C19.9 22.6 19.3 23 19.3 24 19.3 25 19.5 25 19.9 25.4L25.4 30.9C27.8 33.3 31.9 31.6 31.9 28.2 31.9 24.8 31.5 26.2 30.8 25.5ZM28.2 30C27.7 30 27.3 29.8 26.9 29.5L21.4 24 24 21.4 29.5 26.9C30.6 28 29.8 30 28.2 30Z" fill="#EFD500"></path><path d="M6 16C5.1 16 4.7 14.9 5.3 14.3L9.3 10.3C9.7 9.9 10.3 9.9 10.7 10.3L13 12.6 16.3 9.3C16.7 8.9 17.3 8.9 17.7 9.3 18.1 9.7 18.1 10.3 17.7 10.7L13.7 14.7C13.3 15.1 12.7 15.1 12.3 14.7L10 12.4 6.7 15.7C6.5 15.9 6.2 16 6 16Z" fill="#EFD500"></path><path d="M18 13C17.4 13 17 12.6 17 12L17 10 15 10C14.4 10 14 9.6 14 9 14 8.4 14.4 8 15 8L18 8C18.6 8 19 8.4 19 9L19 12C19 12.6 18.6 13 18 13Z" fill="#EFD500"></path></svg>