<svg viewBox="0 0 32 32" xmlns="http://www.w3.org/2000/svg" xmlns:xlink="http://www.w3.org/1999/xlink" id="Polling" overflow="hidden"><defs></defs><path d="M7 32 5 32C3.3 32 2 30.7 2 29L2 23C2 21.3 3.3 20 5 20L7 20C8.7 20 10 21.3 10 23L10 29C10 30.7 8.7 32 7 32ZM5 22C4.4 22 4 22.4 4 23L4 29C4 29.6 4.4 30 5 30L7 30C7.6 30 8 29.6 8 29L8 23C8 22.4 7.6 22 7 22L5 22Z" fill="#EFD500"></path><path d="M17 32 15 32C13.3 32 12 30.7 12 29L12 19C12 17.3 13.3 16 15 16L17 16C18.7 16 20 17.3 20 19L20 29C20 30.7 18.7 32 17 32ZM15 18C14.4 18 14 18.4 14 19L14 29C14 29.6 14.4 30 15 30L17 30C17.6 30 18 29.6 18 29L18 19C18 18.4 17.6 18 17 18L15 18Z" fill="#EFD500"></path><path d="M26.9 32 25.1 32C23.4 32 22 30.6 22 28.9L22 13.1C22 11.4 23.4 10 25.1 10L26.9 10C28.6 10 30 11.4 30 13.1L30 23C30 23.6 29.6 24 29 24 28.4 24 28 23.6 28 23L28 13.1C28 12.5 27.5 12 26.9 12L25.1 12C24.5 12 24 12.5 24 13.1L24 28.9C24 29.5 24.5 30 25.1 30L26.9 30C27.5 30 28 29.5 28 28.9L28 27C28 26.4 28.4 26 29 26 29.6 26 30 26.4 30 27L30 28.9C30 30.6 28.6 32 26.9 32Z" fill="#EFD500"></path><path d="M10.9 6.7C13.3 4.2 11.5 0 8 0 4.5 0 2.7 4.2 5.1 6.7 3.2 7.7 2 9.7 2 12 2 14.3 2.4 13 3 13L13 13C13.6 13 14 12.6 14 12 14 9.7 12.7 7.8 10.9 6.7ZM6 4C6 2.9 6.9 2 8 2 9.1 2 10 2.9 10 4 10 5.1 9.1 6 8 6 6.9 6 6 5.1 6 4ZM4.1 11C4.5 9.3 6.1 8 8 8 9.9 8 11.4 9.3 11.9 11L4.2 11Z" fill="#EFD500"></path></svg>