<svg viewBox="0 0 32 32" xmlns="http://www.w3.org/2000/svg" xmlns:xlink="http://www.w3.org/1999/xlink" id="wedge_diagram" overflow="hidden"><defs></defs><path d="M6.7 30.4C6.2 30.2 5.9 29.6 6.1 29.1 6.3 28.6 6.9 28.3 7.4 28.5 12.6 30.3 18.1 26.5 18.1 21 18.1 15.5 14.5 13 10.1 13 3.2 13-0.4 21.2 4.1 26.3 4.5 26.7 4.4 27.3 4.1 27.7 3.7 28.1 3.1 28 2.7 27.7-3 21.3 1.5 11 10.2 11 18.9 11 20.2 15.5 20.2 21 20.2 26.5 13.4 32.7 6.9 30.4Z" fill="#EFD500"></path><path d="M16 21C10.5 21 6 16.5 6 11 6 5.5 10.5 1 16 1 21.5 1 26 5.5 26 11 26 16.5 21.5 21 16 21ZM16 3C11.6 3 8 6.6 8 11 8 15.4 11.6 19 16 19 20.4 19 24 15.4 24 11 24 6.6 20.4 3 16 3Z" fill="#EFD500"></path><path d="M22 31C16.5 31 12 26.5 12 21 12 15.5 16.5 11 22 11 27.5 11 32 15.5 32 21 32 26.5 27.5 31 22 31ZM22 13C17.6 13 14 16.6 14 21 14 25.4 17.6 29 22 29 26.4 29 30 25.4 30 21 30 16.6 26.4 13 22 13Z" fill="#EFD500"></path></svg>