<svg viewBox="0 0 32 32" xmlns="http://www.w3.org/2000/svg" xmlns:xlink="http://www.w3.org/1999/xlink" id="Down" overflow="hidden"><defs></defs><path d="M25.2 12.6 20.2 6.6C19.7 5.9 20.2 5 21 5L23 5 23 1C23 0.4 23.4 0 24 0L28 0C28.6 0 29 0.4 29 1L29 5 31 5C31.8 5 32.3 6 31.8 6.6L26.8 12.6C26.4 13.1 25.7 13.1 25.3 12.6ZM23.1 7 26 10.4 28.9 7 28 7C27.4 7 27 6.6 27 6L27 2 25 2 25 6C25 6.6 24.6 7 24 7L23.1 7Z" fill="#EFD500"></path><path d="M27.5 20 27.1 20.2C26.7 20.5 26.1 20.3 25.8 19.9L21.2 13.4C20.1 11.9 18 11.7 16.6 13L11.8 17.8C11.4 18.2 10.7 18.2 10.4 17.8L5.3 12.2C3.5 10.2 0.1 11.5 0.1 14.2L0.1 27C0.1 27.6 0.5 28 1.1 28 1.7 28 2.1 27.6 2.1 27L2.1 14.2C2.1 13.3 3.2 12.8 3.8 13.5L8.9 19.1C10 20.3 12 20.5 13.2 19.2L18 14.4C18.4 14 19.2 14 19.5 14.5L24.1 21C25 22.3 26.8 22.7 28.1 21.9L28.5 21.7C29.2 21.3 30 21.7 30 22.6L30 29.1C30 29.7 29.6 30.1 29 30.1L27 30.1 27 26.1C27 25.5 26.6 25.1 26 25.1 25.4 25.1 25 25.5 25 26.1L25 30.1 20 30.1 20 19.1C20 18.5 19.6 18.1 19 18.1 18.4 18.1 18 18.5 18 19.1L18 30.1C18 30.1 12 30.1 12 30.1L12 24.1C12 23.5 11.6 23.1 11 23.1 10.4 23.1 10 23.5 10 24.1L10 30.1 1 30.1C0.4 30.1 0 30.5 0 31.1 0 31.7 0.4 32.1 1 32.1L29 32.1C30.7 32.1 32 30.8 32 29.1L32 22.6C32 20.3 29.5 18.8 27.5 20Z" fill="#EFD500"></path></svg>