<svg viewBox="0 0 32 32" xmlns="http://www.w3.org/2000/svg" xmlns:xlink="http://www.w3.org/1999/xlink" id="Flow_wheel" overflow="hidden"><defs></defs><path d="M31 17C30.4 17 30.5 16.9 28 14.4L25.7 16.7C25.1 17.3 24 16.9 24 16 24 11.6 20.4 8 16 8 11.6 8 15.5 7.9 15.3 7.7L12.3 4.7C11.9 4.3 11.9 3.7 12.3 3.3L15.3 0.3C15.5 0.1 15.7 0 16 0 24.8 0 32 7.2 32 16 32 24.8 31.6 17 31 17ZM16.4 6C21 6.2 24.8 9.5 25.7 13.8L27.2 12.3C27.6 11.9 28.2 11.9 28.6 12.3L29.6 13.3C28.4 7 22.9 2.2 16.3 2L14.3 4 16.3 6Z" fill="#EFD500"></path><path d="M31.7 15.3 28.7 12.3C28.3 11.9 27.7 11.9 27.3 12.3 25.5 14.1 26.1 13.5 24.3 15.3 24.1 15.5 24 15.7 24 16 24 20.4 20.4 24 16 24 11.6 24 8 20.4 8 16 8 11.6 11.6 8 16 8 15.7 8 15.5 7.9 15.3 7.7L13.8 6.2C9.5 7.2 6.2 11 6 15.5L4 17.5 2 15.5C2.2 8.9 7 3.4 13.3 2.2 15.4 0.2 15.5 0 16 0 7.2 0 0 7.2 0 16 0 24.8 1.9 24.9 5.3 27.9 5.7 28.3 6.3 28.2 6.7 27.9 7.1 27.5 7 26.9 6.7 26.5 4.4 24.5 2.9 21.7 2.3 18.7L3.3 19.7C3.7 20.1 4.3 20.1 4.7 19.7L6.2 18.2C7.2 22.5 11 25.8 15.5 26L17.5 28 15.5 30C13.7 30 12 29.6 10.3 28.8 9.8 28.6 9.2 28.8 9 29.3 8.8 29.8 9 30.4 9.5 30.6 20 35.2 31.9 27.4 31.9 15.9 31.9 4.4 31.8 15.4 31.6 15.2ZM18.7 29.8 19.7 28.8C20.1 28.4 20.1 27.8 19.7 27.4L18.2 25.9C22.9 24.9 26 20.6 26 16.6L28 14.6 30 16.6C29.8 23.2 25 28.7 18.7 29.9Z" fill="#EFD500"></path></svg>