<svg viewBox="0 0 32 32" xmlns="http://www.w3.org/2000/svg" xmlns:xlink="http://www.w3.org/1999/xlink" id="Audit" overflow="hidden"><defs></defs><path d="M12.8 25.7C12.3 25.7 11.9 25.1 12 24.5 12 24 12.6 23.6 13.2 23.7 19.6 24.8 26.1 22.1 29.9 15.9 23.3 5.2 8.8 5.2 2.2 15.9 4 18.9 6.5 21.2 9.5 22.5 10 22.7 10.2 23.3 10 23.8 9.8 24.3 9.2 24.5 8.7 24.3 5.2 22.7 2.3 20 0.3 16.4 0.1 16.1 0.1 15.7 0.3 15.4 7.6 2.7 24.7 2.7 32 15.4 32.2 15.7 32.2 16.1 32 16.4 27.8 23.7 20.4 26.9 13 25.6Z" fill="#EFD500"></path><path d="M24.7 23.3 20.9 19.5C23.7 15.5 20.9 10 16 10 11.1 10 10 12.7 10 16 10 20.9 15.5 23.7 19.5 20.9L23.3 24.7C23.5 24.9 23.8 25 24 25 24.9 25 25.3 23.9 24.7 23.3ZM12 16C12 13.8 13.8 12 16 12 18.2 12 20 13.8 20 16 20 18.2 18.2 20 16 20 13.8 20 12 18.2 12 16Z" fill="#EFD500"></path></svg>