<svg viewBox="0 0 32 32" xmlns="http://www.w3.org/2000/svg" xmlns:xlink="http://www.w3.org/1999/xlink" id="Document_analytic" overflow="hidden"><defs></defs><path d="M3 3 14.6 3C15 3 15.4 3.3 15.5 3.7L16.6 7C17 8.2 18.2 9.1 19.4 9.1L31 9.1C31.6 9.1 32 8.7 32 8.1L32 6.1C32 4.4 30.7 3.1 29 3.1L17.4 3.1C17 1.9 15.9 1.1 14.6 1.1L3 1.1C1.3 1 0 2.3 0 4L0 28C0 29.7 1.3 31 3 31L29 31C30.7 31 32 29.7 32 28L32 12C32 11.4 31.6 11 31 11 30.4 11 30 11.4 30 12L30 28C30 28.6 29.6 29 29 29L3 29C2.4 29 2 28.6 2 28L2 4C2 3.4 2.4 3 3 3ZM30 6 30 7 19.4 7C19 7 18.6 6.7 18.5 6.3L18.1 5 29 5C29.6 5 30 5.4 30 6Z" fill="#EFD500"></path><path d="M31.7 29.3 26.6 24.2C30 19.6 26.7 13 21 13 15.3 13 14 16.1 14 20 14 25.8 20.6 29 25.2 25.6L30.3 30.7C30.5 30.9 30.8 31 31 31 31.9 31 32.3 29.9 31.7 29.3ZM16 20C16 17.2 18.2 15 21 15 25.5 15 27.7 20.4 24.5 23.5 21.3 26.6 16 24.4 16 20Z" fill="#EFD500"></path><path d="M11 13 5 13C4.4 13 4 12.6 4 12 4 11.4 4.4 11 5 11L11 11C11.6 11 12 11.4 12 12 12 12.6 11.6 13 11 13Z" fill="#EFD500"></path><path d="M9 17 5 17C4.4 17 4 16.6 4 16 4 15.4 4.4 15 5 15L9 15C9.6 15 10 15.4 10 16 10 16.6 9.6 17 9 17Z" fill="#EFD500"></path></svg>