<svg viewBox="0 0 32 32" xmlns="http://www.w3.org/2000/svg" xmlns:xlink="http://www.w3.org/1999/xlink" id="Bar_Chart" overflow="hidden"><defs></defs><path d="M1 32C0.4 32 0 31.6 0 31L0 1C0 0.4 0.4 0 1 0 1.6 0 2 0.4 2 1L2 31C2 31.6 1.6 32 1 32Z" fill="#EFD500"></path><path d="M29 10 7 10C5.3 10 4 8.7 4 7L4 5C4 3.3 5.3 2 7 2L29 2C30.7 2 32 3.3 32 5L32 7C32 8.7 30.7 10 29 10ZM7 4C6.4 4 6 4.4 6 5L6 7C6 7.6 6.4 8 7 8L29 8C29.6 8 30 7.6 30 7L30 5C30 4.4 29.6 4 29 4L7 4Z" fill="#EFD500"></path><path d="M23 20 13 20C12.4 20 12 19.6 12 19 12 18.4 12.4 18 13 18L23 18C23.6 18 24 17.6 24 17L24 15C24 14.4 23.6 14 23 14L7 14C6.4 14 6 14.4 6 15L6 17C6 17.6 6.4 18 7 18L9 18C9.6 18 10 18.4 10 19 10 19.6 9.6 20 9 20L7 20C5.3 20 4 18.7 4 17L4 15C4 13.3 5.3 12 7 12L23 12C24.7 12 26 13.3 26 15L26 17C26 18.7 24.7 20 23 20Z" fill="#EFD500"></path><path d="M17 30 7 30C5.3 30 4 28.7 4 27L4 25C4 23.3 5.3 22 7 22L17 22C18.7 22 20 23.3 20 25L20 27C20 28.7 18.7 30 17 30ZM7 24C6.4 24 6 24.4 6 25L6 27C6 27.6 6.4 28 7 28L17 28C17.6 28 18 27.6 18 27L18 25C18 24.4 17.6 24 17 24L7 24Z" fill="#EFD500"></path></svg>