<svg viewBox="0 0 32 32" xmlns="http://www.w3.org/2000/svg" xmlns:xlink="http://www.w3.org/1999/xlink" id="organize" overflow="hidden"><defs></defs><path d="M29.7 22C31 22 32 21 32 19.7L32 16.3C32 15 31 14 29.7 14L27 14 27 13C27 11.3 25.7 10 24 10L17 10 17 7.3C17 6.7 16.6 6.3 16 6.3 15.4 6.3 15 6.7 15 7.3L15 10 8 10C6.3 10 5 11.3 5 13L5 14 2.3 14C1 14 0 15 0 16.3L0 19.7C0 21 1 22 2.3 22L5 22 5 24 2.3 24C1 24 0 25 0 26.3L0 29.7C0 31 1 32 2.3 32L3 32C3.6 32 4 31.6 4 31 4 30.4 3.6 30 3 30L2.3 30C2.1 30 2 29.9 2 29.7L2 26.3C2 26.1 2.1 26 2.3 26L9.7 26C9.9 26 10 26.1 10 26.3L10 29.7C10 29.9 9.9 30 9.7 30L7 30C6.4 30 6 30.4 6 31 6 31.6 6.4 32 7 32L9.7 32C11 32 12 31 12 29.7L12 29 20 29 20 29.7C20 31 21 32 22.3 32L29.7 32C31 32 32 31 32 29.7L32 26.3C32 25 31 24 29.7 24L27 24 27 22 29.7 22ZM30 16.3 30 19.7C30 19.9 29.9 20 29.7 20L22.3 20C22.1 20 22 19.9 22 19.7L22 16.3C22 16.1 22.1 16 22.3 16L29.7 16C29.9 16 30 16.1 30 16.3ZM2 19.7 2 16.3C2 16.1 2.1 16 2.3 16L9.7 16C9.9 16 10 16.1 10 16.3L10 19.7C10 19.9 9.9 20 9.7 20L2.3 20C2.1 20 2 19.9 2 19.7ZM30 26.3 30 29.7C30 29.9 29.9 30 29.7 30L22.3 30C22.1 30 22 29.9 22 29.7L22 26.3C22 26.1 22.1 26 22.3 26L29.7 26C29.9 26 30 26.1 30 26.3ZM25 24 22.3 24C21 24 20 25 20 26.3L20 27 12 27 12 26.3C12 25 11 24 9.7 24L7 24 7 22 9.7 22C11 22 12 21 12 19.7L12 16.3C12 15 11 14 9.7 14L7 14 7 13C7 12.4 7.4 12 8 12L24 12C24.6 12 25 12.4 25 13L25 14 22.3 14C21 14 20 15 20 16.3L20 19.7C20 21 21 22 22.3 22L25 22 25 24Z" fill="#EFD500"></path><path d="M19.7 8 12.3 8C11 8 10 7 10 5.7L10 2.3C10 1 11 4.44089e-16 12.3 4.44089e-16L19.7 4.44089e-16C21 4.44089e-16 22 1 22 2.3L22 5.7C22 7 21 8 19.7 8ZM12.3 2C12.1 2 12 2.1 12 2.3L12 5.7C12 5.9 12.1 6 12.3 6L19.7 6C19.9 6 20 5.9 20 5.7L20 2.3C20 2.1 19.9 2 19.7 2L12.3 2Z" fill="#EFD500"></path></svg>