<svg viewBox="0 0 32 32" xmlns="http://www.w3.org/2000/svg" xmlns:xlink="http://www.w3.org/1999/xlink" id="percentage" overflow="hidden"><defs></defs><path d="M13 20C12.1 20 11.7 18.9 12.3 18.3L18.3 12.3C18.7 11.9 19.3 11.9 19.7 12.3 20.1 12.7 20.1 13.3 19.7 13.7L13.7 19.7C13.5 19.9 13.2 20 13 20Z" fill="#EFD500"></path><path d="M13 14C12.4 14 12 13.6 12 13 12 12.4 12.2 12 13 12 13.8 12 14 12.4 14 13 14 13.6 13.6 14 13 14Z" fill="#EFD500"></path><path d="M19 19.9C18.4 19.9 18 19.5 18 18.9 18 18.3 18.2 17.9 19 17.9 19.8 17.9 20 18.3 20 18.9 20 19.5 19.6 19.9 19 19.9Z" fill="#EFD500"></path><path d="M16 0C7.2 0 0 7.2 0 16 0 24.8 2.3 25.7 6.4 28.8 6.8 29.1 7.5 29 7.8 28.6 8.1 28.2 8 27.5 7.6 27.2 4 24.5 2 20.4 2 16 2 8.6 7.7 2.6 15 2.1L15 6.1C10 6.6 6 10.9 6 16 6 21.1 10 25.4 15 25.9L15 29.9C13.7 29.9 12.5 29.6 11.3 29.1 10.8 28.9 10.2 29.1 10 29.7 9.8 30.2 10 30.8 10.6 31 21 34.7 31.9 26.9 31.9 15.9 31.9 4.9 24.8 0 16 0ZM26.6 25.2 23.8 22.4C28.8 16.2 24.9 6.9 17.1 6.1L17.1 2.1C28.6 2.9 34.2 16.5 26.7 25.2ZM22.3 23.7 25.1 26.5C22.9 28.4 20.1 29.7 16.9 29.9L16.9 25.9C18.9 25.7 20.7 24.9 22.2 23.7ZM8 16C8 11.6 11.6 8 16 8 23.1 8 26.7 16.6 21.7 21.6 16.7 26.6 8 23.1 8 16Z" fill="#EFD500"></path></svg>